G04 #@! TF.FileFunction,Legend,Top*
%FSLAX46Y46*%
G04 Gerber Fmt 4.6, Leading zero omitted, Abs format (unit mm)*
G04 Created by KiCad (PCBNEW (2014-11-17 BZR 5289)-product) date Thu 22 Jan 2015 10:16:19 AM EST*
%MOMM*%
G01*
G04 APERTURE LIST*
%ADD10C,0.100000*%
%ADD11C,0.150000*%
G04 APERTURE END LIST*
D10*
D11*
X212650000Y-145400000D02*
X213350000Y-145400000D01*
X213350000Y-146600000D02*
X212650000Y-146600000D01*
X215350000Y-141100000D02*
X214650000Y-141100000D01*
X214650000Y-139900000D02*
X215350000Y-139900000D01*
X219350000Y-141100000D02*
X218650000Y-141100000D01*
X218650000Y-139900000D02*
X219350000Y-139900000D01*
X221690000Y-112730000D02*
X231850000Y-112730000D01*
X231850000Y-112730000D02*
X231850000Y-115270000D01*
X231850000Y-115270000D02*
X221690000Y-115270000D01*
X219150000Y-112730000D02*
X221690000Y-112730000D01*
X221690000Y-112730000D02*
X221690000Y-115270000D01*
X219150000Y-112730000D02*
X219150000Y-115270000D01*
X219150000Y-115270000D02*
X221690000Y-115270000D01*
X207460000Y-117540000D02*
X215080000Y-117540000D01*
X215080000Y-117540000D02*
X215080000Y-112460000D01*
X215080000Y-112460000D02*
X204920000Y-112460000D01*
X204920000Y-112460000D02*
X204920000Y-115000000D01*
X204920000Y-117540000D02*
X207460000Y-117540000D01*
X204920000Y-115000000D02*
X207460000Y-115000000D01*
X207460000Y-115000000D02*
X207460000Y-117540000D01*
X204920000Y-117540000D02*
X204920000Y-115000000D01*
X216460000Y-152270000D02*
X224080000Y-152270000D01*
X216460000Y-149730000D02*
X224080000Y-149730000D01*
X213920000Y-149730000D02*
X216460000Y-149730000D01*
X224080000Y-152270000D02*
X224080000Y-149730000D01*
X216460000Y-149730000D02*
X216460000Y-152270000D01*
X213920000Y-149730000D02*
X213920000Y-152270000D01*
X213920000Y-152270000D02*
X216460000Y-152270000D01*
X202500000Y-140500000D02*
X198000000Y-140500000D01*
X198000000Y-140500000D02*
X198000000Y-143500000D01*
X198000000Y-143500000D02*
X197500000Y-143500000D01*
X197500000Y-143500000D02*
X197500000Y-146500000D01*
X197500000Y-146500000D02*
X198000000Y-146500000D01*
X198000000Y-146500000D02*
X198000000Y-149500000D01*
X198000000Y-149500000D02*
X202500000Y-149500000D01*
X202500000Y-149500000D02*
X202500000Y-140500000D01*
X202500000Y-114500000D02*
X198000000Y-114500000D01*
X198000000Y-114500000D02*
X198000000Y-117500000D01*
X198000000Y-117500000D02*
X197500000Y-117500000D01*
X197500000Y-117500000D02*
X197500000Y-120500000D01*
X197500000Y-120500000D02*
X198000000Y-120500000D01*
X198000000Y-120500000D02*
X198000000Y-123500000D01*
X198000000Y-123500000D02*
X202500000Y-123500000D01*
X202500000Y-123500000D02*
X202500000Y-114500000D01*
X233500000Y-123500000D02*
X238000000Y-123500000D01*
X238000000Y-123500000D02*
X238000000Y-120500000D01*
X238000000Y-120500000D02*
X238500000Y-120500000D01*
X238500000Y-120500000D02*
X238500000Y-117500000D01*
X238500000Y-117500000D02*
X238000000Y-117500000D01*
X238000000Y-117500000D02*
X238000000Y-114500000D01*
X238000000Y-114500000D02*
X233500000Y-114500000D01*
X233500000Y-114500000D02*
X233500000Y-123500000D01*
X233500000Y-149500000D02*
X238000000Y-149500000D01*
X238000000Y-149500000D02*
X238000000Y-146500000D01*
X238000000Y-146500000D02*
X238500000Y-146500000D01*
X238500000Y-146500000D02*
X238500000Y-143500000D01*
X238500000Y-143500000D02*
X238000000Y-143500000D01*
X238000000Y-143500000D02*
X238000000Y-140500000D01*
X238000000Y-140500000D02*
X233500000Y-140500000D01*
X233500000Y-140500000D02*
X233500000Y-149500000D01*
X215587000Y-131222000D02*
X220413000Y-131222000D01*
X220413000Y-131222000D02*
X220413000Y-134778000D01*
X220413000Y-134778000D02*
X215587000Y-134778000D01*
X215587000Y-134778000D02*
X215587000Y-131222000D01*
X216603000Y-134143000D02*
G75*
G03X216603000Y-134143000I-381000J0D01*
G01*
X234700280Y-133750320D02*
X234601220Y-134050040D01*
X235299720Y-133750320D02*
X235398780Y-134050040D01*
X235899160Y-133750320D02*
X235899160Y-128700800D01*
X235899160Y-128700800D02*
X234100840Y-128700800D01*
X234100840Y-128700800D02*
X234100840Y-133750320D01*
X235899160Y-133750320D02*
X234100840Y-133750320D01*
X227000000Y-142000000D02*
X209000000Y-142000000D01*
X209000000Y-142000000D02*
X209000000Y-144000000D01*
X209000000Y-144000000D02*
X227000000Y-144000000D01*
X227000000Y-144000000D02*
X227000000Y-142000000D01*
X212833334Y-144457143D02*
X212785715Y-144504762D01*
X212642858Y-144552381D01*
X212547620Y-144552381D01*
X212404762Y-144504762D01*
X212309524Y-144409524D01*
X212261905Y-144314286D01*
X212214286Y-144123810D01*
X212214286Y-143980952D01*
X212261905Y-143790476D01*
X212309524Y-143695238D01*
X212404762Y-143600000D01*
X212547620Y-143552381D01*
X212642858Y-143552381D01*
X212785715Y-143600000D01*
X212833334Y-143647619D01*
X213785715Y-144552381D02*
X213214286Y-144552381D01*
X213500000Y-144552381D02*
X213500000Y-143552381D01*
X213404762Y-143695238D01*
X213309524Y-143790476D01*
X213214286Y-143838095D01*
X213309524Y-148257143D02*
X213261905Y-148304762D01*
X213119048Y-148352381D01*
X213023810Y-148352381D01*
X212880952Y-148304762D01*
X212785714Y-148209524D01*
X212738095Y-148114286D01*
X212690476Y-147923810D01*
X212690476Y-147780952D01*
X212738095Y-147590476D01*
X212785714Y-147495238D01*
X212880952Y-147400000D01*
X213023810Y-147352381D01*
X213119048Y-147352381D01*
X213261905Y-147400000D01*
X213309524Y-147447619D01*
X214833334Y-142757143D02*
X214785715Y-142804762D01*
X214642858Y-142852381D01*
X214547620Y-142852381D01*
X214404762Y-142804762D01*
X214309524Y-142709524D01*
X214261905Y-142614286D01*
X214214286Y-142423810D01*
X214214286Y-142280952D01*
X214261905Y-142090476D01*
X214309524Y-141995238D01*
X214404762Y-141900000D01*
X214547620Y-141852381D01*
X214642858Y-141852381D01*
X214785715Y-141900000D01*
X214833334Y-141947619D01*
X215214286Y-141947619D02*
X215261905Y-141900000D01*
X215357143Y-141852381D01*
X215595239Y-141852381D01*
X215690477Y-141900000D01*
X215738096Y-141947619D01*
X215785715Y-142042857D01*
X215785715Y-142138095D01*
X215738096Y-142280952D01*
X215166667Y-142852381D01*
X215785715Y-142852381D01*
X215309524Y-138957143D02*
X215261905Y-139004762D01*
X215119048Y-139052381D01*
X215023810Y-139052381D01*
X214880952Y-139004762D01*
X214785714Y-138909524D01*
X214738095Y-138814286D01*
X214690476Y-138623810D01*
X214690476Y-138480952D01*
X214738095Y-138290476D01*
X214785714Y-138195238D01*
X214880952Y-138100000D01*
X215023810Y-138052381D01*
X215119048Y-138052381D01*
X215261905Y-138100000D01*
X215309524Y-138147619D01*
X218833334Y-142757143D02*
X218785715Y-142804762D01*
X218642858Y-142852381D01*
X218547620Y-142852381D01*
X218404762Y-142804762D01*
X218309524Y-142709524D01*
X218261905Y-142614286D01*
X218214286Y-142423810D01*
X218214286Y-142280952D01*
X218261905Y-142090476D01*
X218309524Y-141995238D01*
X218404762Y-141900000D01*
X218547620Y-141852381D01*
X218642858Y-141852381D01*
X218785715Y-141900000D01*
X218833334Y-141947619D01*
X219166667Y-141852381D02*
X219785715Y-141852381D01*
X219452381Y-142233333D01*
X219595239Y-142233333D01*
X219690477Y-142280952D01*
X219738096Y-142328571D01*
X219785715Y-142423810D01*
X219785715Y-142661905D01*
X219738096Y-142757143D01*
X219690477Y-142804762D01*
X219595239Y-142852381D01*
X219309524Y-142852381D01*
X219214286Y-142804762D01*
X219166667Y-142757143D01*
X219309524Y-138957143D02*
X219261905Y-139004762D01*
X219119048Y-139052381D01*
X219023810Y-139052381D01*
X218880952Y-139004762D01*
X218785714Y-138909524D01*
X218738095Y-138814286D01*
X218690476Y-138623810D01*
X218690476Y-138480952D01*
X218738095Y-138290476D01*
X218785714Y-138195238D01*
X218880952Y-138100000D01*
X219023810Y-138052381D01*
X219119048Y-138052381D01*
X219261905Y-138100000D01*
X219309524Y-138147619D01*
X224761905Y-112166381D02*
X224761905Y-111166381D01*
X225142858Y-111166381D01*
X225238096Y-111214000D01*
X225285715Y-111261619D01*
X225333334Y-111356857D01*
X225333334Y-111499714D01*
X225285715Y-111594952D01*
X225238096Y-111642571D01*
X225142858Y-111690190D01*
X224761905Y-111690190D01*
X226285715Y-112166381D02*
X225714286Y-112166381D01*
X226000000Y-112166381D02*
X226000000Y-111166381D01*
X225904762Y-111309238D01*
X225809524Y-111404476D01*
X225714286Y-111452095D01*
X209261905Y-111642381D02*
X209261905Y-110642381D01*
X209642858Y-110642381D01*
X209738096Y-110690000D01*
X209785715Y-110737619D01*
X209833334Y-110832857D01*
X209833334Y-110975714D01*
X209785715Y-111070952D01*
X209738096Y-111118571D01*
X209642858Y-111166190D01*
X209261905Y-111166190D01*
X210214286Y-110737619D02*
X210261905Y-110690000D01*
X210357143Y-110642381D01*
X210595239Y-110642381D01*
X210690477Y-110690000D01*
X210738096Y-110737619D01*
X210785715Y-110832857D01*
X210785715Y-110928095D01*
X210738096Y-111070952D01*
X210166667Y-111642381D01*
X210785715Y-111642381D01*
X218261905Y-149166381D02*
X218261905Y-148166381D01*
X218642858Y-148166381D01*
X218738096Y-148214000D01*
X218785715Y-148261619D01*
X218833334Y-148356857D01*
X218833334Y-148499714D01*
X218785715Y-148594952D01*
X218738096Y-148642571D01*
X218642858Y-148690190D01*
X218261905Y-148690190D01*
X219690477Y-148499714D02*
X219690477Y-149166381D01*
X219452381Y-148118762D02*
X219214286Y-148833048D01*
X219833334Y-148833048D01*
X202107143Y-147000000D02*
X202178571Y-146785714D01*
X202178571Y-146428571D01*
X202107143Y-146285714D01*
X202035714Y-146214285D01*
X201892857Y-146142857D01*
X201750000Y-146142857D01*
X201607143Y-146214285D01*
X201535714Y-146285714D01*
X201464286Y-146428571D01*
X201392857Y-146714285D01*
X201321429Y-146857143D01*
X201250000Y-146928571D01*
X201107143Y-147000000D01*
X200964286Y-147000000D01*
X200821429Y-146928571D01*
X200750000Y-146857143D01*
X200678571Y-146714285D01*
X200678571Y-146357143D01*
X200750000Y-146142857D01*
X200678571Y-145642857D02*
X202178571Y-145285714D01*
X201107143Y-145000000D01*
X202178571Y-144714286D01*
X200678571Y-144357143D01*
X202178571Y-143000000D02*
X202178571Y-143857143D01*
X202178571Y-143428571D02*
X200678571Y-143428571D01*
X200892857Y-143571428D01*
X201035714Y-143714286D01*
X201107143Y-143857143D01*
X202107143Y-121250000D02*
X202178571Y-121035714D01*
X202178571Y-120678571D01*
X202107143Y-120535714D01*
X202035714Y-120464285D01*
X201892857Y-120392857D01*
X201750000Y-120392857D01*
X201607143Y-120464285D01*
X201535714Y-120535714D01*
X201464286Y-120678571D01*
X201392857Y-120964285D01*
X201321429Y-121107143D01*
X201250000Y-121178571D01*
X201107143Y-121250000D01*
X200964286Y-121250000D01*
X200821429Y-121178571D01*
X200750000Y-121107143D01*
X200678571Y-120964285D01*
X200678571Y-120607143D01*
X200750000Y-120392857D01*
X200678571Y-119892857D02*
X202178571Y-119535714D01*
X201107143Y-119250000D01*
X202178571Y-118964286D01*
X200678571Y-118607143D01*
X200821429Y-118107143D02*
X200750000Y-118035714D01*
X200678571Y-117892857D01*
X200678571Y-117535714D01*
X200750000Y-117392857D01*
X200821429Y-117321428D01*
X200964286Y-117250000D01*
X201107143Y-117250000D01*
X201321429Y-117321428D01*
X202178571Y-118178571D01*
X202178571Y-117250000D01*
X235357143Y-121250000D02*
X235428571Y-121035714D01*
X235428571Y-120678571D01*
X235357143Y-120535714D01*
X235285714Y-120464285D01*
X235142857Y-120392857D01*
X235000000Y-120392857D01*
X234857143Y-120464285D01*
X234785714Y-120535714D01*
X234714286Y-120678571D01*
X234642857Y-120964285D01*
X234571429Y-121107143D01*
X234500000Y-121178571D01*
X234357143Y-121250000D01*
X234214286Y-121250000D01*
X234071429Y-121178571D01*
X234000000Y-121107143D01*
X233928571Y-120964285D01*
X233928571Y-120607143D01*
X234000000Y-120392857D01*
X233928571Y-119892857D02*
X235428571Y-119535714D01*
X234357143Y-119250000D01*
X235428571Y-118964286D01*
X233928571Y-118607143D01*
X233928571Y-118178571D02*
X233928571Y-117250000D01*
X234500000Y-117750000D01*
X234500000Y-117535714D01*
X234571429Y-117392857D01*
X234642857Y-117321428D01*
X234785714Y-117250000D01*
X235142857Y-117250000D01*
X235285714Y-117321428D01*
X235357143Y-117392857D01*
X235428571Y-117535714D01*
X235428571Y-117964286D01*
X235357143Y-118107143D01*
X235285714Y-118178571D01*
X235357143Y-147250000D02*
X235428571Y-147035714D01*
X235428571Y-146678571D01*
X235357143Y-146535714D01*
X235285714Y-146464285D01*
X235142857Y-146392857D01*
X235000000Y-146392857D01*
X234857143Y-146464285D01*
X234785714Y-146535714D01*
X234714286Y-146678571D01*
X234642857Y-146964285D01*
X234571429Y-147107143D01*
X234500000Y-147178571D01*
X234357143Y-147250000D01*
X234214286Y-147250000D01*
X234071429Y-147178571D01*
X234000000Y-147107143D01*
X233928571Y-146964285D01*
X233928571Y-146607143D01*
X234000000Y-146392857D01*
X233928571Y-145892857D02*
X235428571Y-145535714D01*
X234357143Y-145250000D01*
X235428571Y-144964286D01*
X233928571Y-144607143D01*
X234428571Y-143392857D02*
X235428571Y-143392857D01*
X233857143Y-143750000D02*
X234928571Y-144107143D01*
X234928571Y-143178571D01*
X217238095Y-131690381D02*
X217238095Y-132499905D01*
X217285714Y-132595143D01*
X217333333Y-132642762D01*
X217428571Y-132690381D01*
X217619048Y-132690381D01*
X217714286Y-132642762D01*
X217761905Y-132595143D01*
X217809524Y-132499905D01*
X217809524Y-131690381D01*
X218809524Y-132690381D02*
X218238095Y-132690381D01*
X218523809Y-132690381D02*
X218523809Y-131690381D01*
X218428571Y-131833238D01*
X218333333Y-131928476D01*
X218238095Y-131976095D01*
X212928571Y-133960381D02*
X212928571Y-132960381D01*
X213261905Y-133674667D01*
X213595238Y-132960381D01*
X213595238Y-133960381D01*
X214023809Y-133912762D02*
X214166666Y-133960381D01*
X214404762Y-133960381D01*
X214500000Y-133912762D01*
X214547619Y-133865143D01*
X214595238Y-133769905D01*
X214595238Y-133674667D01*
X214547619Y-133579429D01*
X214500000Y-133531810D01*
X214404762Y-133484190D01*
X214214285Y-133436571D01*
X214119047Y-133388952D01*
X214071428Y-133341333D01*
X214023809Y-133246095D01*
X214023809Y-133150857D01*
X214071428Y-133055619D01*
X214119047Y-133008000D01*
X214214285Y-132960381D01*
X214452381Y-132960381D01*
X214595238Y-133008000D01*
X215023809Y-133960381D02*
X215023809Y-132960381D01*
X215404762Y-132960381D01*
X215500000Y-133008000D01*
X215547619Y-133055619D01*
X215595238Y-133150857D01*
X215595238Y-133293714D01*
X215547619Y-133388952D01*
X215500000Y-133436571D01*
X215404762Y-133484190D01*
X215023809Y-133484190D01*
X216452381Y-133293714D02*
X216452381Y-133960381D01*
X216214285Y-132912762D02*
X215976190Y-133627048D01*
X216595238Y-133627048D01*
X216880952Y-132960381D02*
X217500000Y-132960381D01*
X217166666Y-133341333D01*
X217309524Y-133341333D01*
X217404762Y-133388952D01*
X217452381Y-133436571D01*
X217500000Y-133531810D01*
X217500000Y-133769905D01*
X217452381Y-133865143D01*
X217404762Y-133912762D01*
X217309524Y-133960381D01*
X217023809Y-133960381D01*
X216928571Y-133912762D01*
X216880952Y-133865143D01*
X218119047Y-132960381D02*
X218214286Y-132960381D01*
X218309524Y-133008000D01*
X218357143Y-133055619D01*
X218404762Y-133150857D01*
X218452381Y-133341333D01*
X218452381Y-133579429D01*
X218404762Y-133769905D01*
X218357143Y-133865143D01*
X218309524Y-133912762D01*
X218214286Y-133960381D01*
X218119047Y-133960381D01*
X218023809Y-133912762D01*
X217976190Y-133865143D01*
X217928571Y-133769905D01*
X217880952Y-133579429D01*
X217880952Y-133341333D01*
X217928571Y-133150857D01*
X217976190Y-133055619D01*
X218023809Y-133008000D01*
X218119047Y-132960381D01*
X219214286Y-133436571D02*
X218880952Y-133436571D01*
X218880952Y-133960381D02*
X218880952Y-132960381D01*
X219357143Y-132960381D01*
X219690476Y-133055619D02*
X219738095Y-133008000D01*
X219833333Y-132960381D01*
X220071429Y-132960381D01*
X220166667Y-133008000D01*
X220214286Y-133055619D01*
X220261905Y-133150857D01*
X220261905Y-133246095D01*
X220214286Y-133388952D01*
X219642857Y-133960381D01*
X220261905Y-133960381D01*
X220880952Y-132960381D02*
X220976191Y-132960381D01*
X221071429Y-133008000D01*
X221119048Y-133055619D01*
X221166667Y-133150857D01*
X221214286Y-133341333D01*
X221214286Y-133579429D01*
X221166667Y-133769905D01*
X221119048Y-133865143D01*
X221071429Y-133912762D01*
X220976191Y-133960381D01*
X220880952Y-133960381D01*
X220785714Y-133912762D01*
X220738095Y-133865143D01*
X220690476Y-133769905D01*
X220642857Y-133579429D01*
X220642857Y-133341333D01*
X220690476Y-133150857D01*
X220738095Y-133055619D01*
X220785714Y-133008000D01*
X220880952Y-132960381D01*
X222166667Y-133960381D02*
X221595238Y-133960381D01*
X221880952Y-133960381D02*
X221880952Y-132960381D01*
X221785714Y-133103238D01*
X221690476Y-133198476D01*
X221595238Y-133246095D01*
X222500000Y-132960381D02*
X223119048Y-132960381D01*
X222785714Y-133341333D01*
X222928572Y-133341333D01*
X223023810Y-133388952D01*
X223071429Y-133436571D01*
X223119048Y-133531810D01*
X223119048Y-133769905D01*
X223071429Y-133865143D01*
X223023810Y-133912762D01*
X222928572Y-133960381D01*
X222642857Y-133960381D01*
X222547619Y-133912762D01*
X222500000Y-133865143D01*
X233989816Y-126052601D02*
X234656483Y-127052601D01*
X234656483Y-126052601D02*
X233989816Y-127052601D01*
X235561245Y-127052601D02*
X234989816Y-127052601D01*
X235275530Y-127052601D02*
X235275530Y-126052601D01*
X235180292Y-126195458D01*
X235085054Y-126290696D01*
X234989816Y-126338315D01*
X217261905Y-138452381D02*
X217261905Y-137452381D01*
X217642858Y-137452381D01*
X217738096Y-137500000D01*
X217785715Y-137547619D01*
X217833334Y-137642857D01*
X217833334Y-137785714D01*
X217785715Y-137880952D01*
X217738096Y-137928571D01*
X217642858Y-137976190D01*
X217261905Y-137976190D01*
X218166667Y-137452381D02*
X218785715Y-137452381D01*
X218452381Y-137833333D01*
X218595239Y-137833333D01*
X218690477Y-137880952D01*
X218738096Y-137928571D01*
X218785715Y-138023810D01*
X218785715Y-138261905D01*
X218738096Y-138357143D01*
X218690477Y-138404762D01*
X218595239Y-138452381D01*
X218309524Y-138452381D01*
X218214286Y-138404762D01*
X218166667Y-138357143D01*
M02*
