G04 #@! TF.FileFunction,Soldermask,Top*
%FSLAX46Y46*%
G04 Gerber Fmt 4.6, Leading zero omitted, Abs format (unit mm)*
G04 Created by KiCad (PCBNEW (2014-11-17 BZR 5289)-product) date Thu 22 Jan 2015 10:16:19 AM EST*
%MOMM*%
G01*
G04 APERTURE LIST*
%ADD10C,0.100000*%
%ADD11C,0.200000*%
%ADD12R,0.800000X0.750000*%
%ADD13R,1.727200X2.032000*%
%ADD14O,1.727200X2.032000*%
%ADD15R,1.727200X1.727200*%
%ADD16O,1.727200X1.727200*%
%ADD17C,1.000000*%
%ADD18R,0.299720X1.300480*%
%ADD19C,1.000760*%
%ADD20R,1.500000X2.032000*%
%ADD21O,1.500000X2.032000*%
G04 APERTURE END LIST*
D10*
D11*
X219000000Y-137000000D02*
X208000000Y-137000000D01*
X218000000Y-112000000D02*
X218000000Y-137000000D01*
X203000000Y-137000000D02*
X208000000Y-137000000D01*
X203000000Y-112000000D02*
X203000000Y-137000000D01*
X233000000Y-139000000D02*
X203000000Y-139000000D01*
X203000000Y-125000000D02*
X203000000Y-145000000D01*
X233000000Y-125000000D02*
X203000000Y-125000000D01*
X233000000Y-145000000D02*
X233000000Y-125000000D01*
X203000000Y-145000000D02*
X233000000Y-145000000D01*
D12*
X212250000Y-146000000D03*
X213750000Y-146000000D03*
X215750000Y-140500000D03*
X214250000Y-140500000D03*
X219750000Y-140500000D03*
X218250000Y-140500000D03*
D13*
X220420000Y-114000000D03*
D14*
X222960000Y-114000000D03*
X225500000Y-114000000D03*
X228040000Y-114000000D03*
X230580000Y-114000000D03*
D15*
X206190000Y-116270000D03*
D16*
X206190000Y-113730000D03*
X208730000Y-116270000D03*
X208730000Y-113730000D03*
X211270000Y-116270000D03*
X211270000Y-113730000D03*
X213810000Y-116270000D03*
X213810000Y-113730000D03*
D13*
X215190000Y-151000000D03*
D14*
X217730000Y-151000000D03*
X220270000Y-151000000D03*
X222810000Y-151000000D03*
D17*
X199000000Y-147250000D03*
X199000000Y-142750000D03*
X201500000Y-148500000D03*
X201500000Y-141500000D03*
X199000000Y-121250000D03*
X199000000Y-116750000D03*
X201500000Y-122500000D03*
X201500000Y-115500000D03*
X237000000Y-116750000D03*
X237000000Y-121250000D03*
X234500000Y-115500000D03*
X234500000Y-122500000D03*
X237000000Y-142750000D03*
X237000000Y-147250000D03*
X234500000Y-141500000D03*
X234500000Y-148500000D03*
D18*
X216069600Y-135794000D03*
X216704600Y-135794000D03*
X217365000Y-135794000D03*
X218000000Y-135794000D03*
X218660400Y-135794000D03*
X219308100Y-135794000D03*
X219955800Y-135794000D03*
X219955800Y-130206000D03*
X219308100Y-130206000D03*
X218660400Y-130206000D03*
X218000000Y-130206000D03*
X217352300Y-130206000D03*
X216704600Y-130206000D03*
X216056900Y-130206000D03*
D19*
X234250700Y-135000000D03*
X235749300Y-135000000D03*
D20*
X210000000Y-143000000D03*
D21*
X212000000Y-143000000D03*
X214000000Y-143000000D03*
X216000000Y-143000000D03*
X218000000Y-143000000D03*
X220000000Y-143000000D03*
X222000000Y-143000000D03*
X224000000Y-143000000D03*
X226000000Y-143000000D03*
M02*
