G04 #@! TF.FileFunction,Soldermask,Bot*
%FSLAX46Y46*%
G04 Gerber Fmt 4.6, Leading zero omitted, Abs format (unit mm)*
G04 Created by KiCad (PCBNEW (2014-11-17 BZR 5289)-product) date Thu 22 Jan 2015 10:16:19 AM EST*
%MOMM*%
G01*
G04 APERTURE LIST*
%ADD10C,0.100000*%
%ADD11R,1.727200X2.032000*%
%ADD12O,1.727200X2.032000*%
%ADD13R,1.727200X1.727200*%
%ADD14O,1.727200X1.727200*%
%ADD15C,1.000000*%
%ADD16C,1.000760*%
%ADD17R,1.500000X2.032000*%
%ADD18O,1.500000X2.032000*%
%ADD19R,10.000000X5.560000*%
%ADD20R,2.600000X5.560000*%
G04 APERTURE END LIST*
D10*
D11*
X220420000Y-114000000D03*
D12*
X222960000Y-114000000D03*
X225500000Y-114000000D03*
X228040000Y-114000000D03*
X230580000Y-114000000D03*
D13*
X206190000Y-116270000D03*
D14*
X206190000Y-113730000D03*
X208730000Y-116270000D03*
X208730000Y-113730000D03*
X211270000Y-116270000D03*
X211270000Y-113730000D03*
X213810000Y-116270000D03*
X213810000Y-113730000D03*
D11*
X215190000Y-151000000D03*
D12*
X217730000Y-151000000D03*
X220270000Y-151000000D03*
X222810000Y-151000000D03*
D15*
X199000000Y-147250000D03*
X199000000Y-142750000D03*
X201500000Y-148500000D03*
X201500000Y-141500000D03*
X199000000Y-121250000D03*
X199000000Y-116750000D03*
X201500000Y-122500000D03*
X201500000Y-115500000D03*
X237000000Y-116750000D03*
X237000000Y-121250000D03*
X234500000Y-115500000D03*
X234500000Y-122500000D03*
X237000000Y-142750000D03*
X237000000Y-147250000D03*
X234500000Y-141500000D03*
X234500000Y-148500000D03*
D16*
X234250700Y-135000000D03*
X235749300Y-135000000D03*
D17*
X210000000Y-143000000D03*
D18*
X212000000Y-143000000D03*
X214000000Y-143000000D03*
X216000000Y-143000000D03*
X218000000Y-143000000D03*
X220000000Y-143000000D03*
X222000000Y-143000000D03*
X224000000Y-143000000D03*
X226000000Y-143000000D03*
D19*
X218000000Y-130500000D03*
D20*
X229900000Y-130500000D03*
X206100000Y-130500000D03*
M02*
