G04 #@! TF.FileFunction,Copper,L1,Top,Signal*
%FSLAX46Y46*%
G04 Gerber Fmt 4.6, Leading zero omitted, Abs format (unit mm)*
G04 Created by KiCad (PCBNEW (2014-11-17 BZR 5289)-product) date Thu 22 Jan 2015 10:16:19 AM EST*
%MOMM*%
G01*
G04 APERTURE LIST*
%ADD10C,0.100000*%
%ADD11R,0.800000X0.750000*%
%ADD12R,1.727200X2.032000*%
%ADD13O,1.727200X2.032000*%
%ADD14R,1.727200X1.727200*%
%ADD15O,1.727200X1.727200*%
%ADD16C,1.000000*%
%ADD17R,0.299720X1.300480*%
%ADD18C,1.000760*%
%ADD19R,1.500000X2.032000*%
%ADD20O,1.500000X2.032000*%
%ADD21C,0.889000*%
%ADD22C,0.254000*%
G04 APERTURE END LIST*
D10*
D11*
X212250000Y-146000000D03*
X213750000Y-146000000D03*
X215750000Y-140500000D03*
X214250000Y-140500000D03*
X219750000Y-140500000D03*
X218250000Y-140500000D03*
D12*
X220420000Y-114000000D03*
D13*
X222960000Y-114000000D03*
X225500000Y-114000000D03*
X228040000Y-114000000D03*
X230580000Y-114000000D03*
D14*
X206190000Y-116270000D03*
D15*
X206190000Y-113730000D03*
X208730000Y-116270000D03*
X208730000Y-113730000D03*
X211270000Y-116270000D03*
X211270000Y-113730000D03*
X213810000Y-116270000D03*
X213810000Y-113730000D03*
D12*
X215190000Y-151000000D03*
D13*
X217730000Y-151000000D03*
X220270000Y-151000000D03*
X222810000Y-151000000D03*
D16*
X199000000Y-147250000D03*
X199000000Y-142750000D03*
X201500000Y-148500000D03*
X201500000Y-141500000D03*
X199000000Y-121250000D03*
X199000000Y-116750000D03*
X201500000Y-122500000D03*
X201500000Y-115500000D03*
X237000000Y-116750000D03*
X237000000Y-121250000D03*
X234500000Y-115500000D03*
X234500000Y-122500000D03*
X237000000Y-142750000D03*
X237000000Y-147250000D03*
X234500000Y-141500000D03*
X234500000Y-148500000D03*
D17*
X216069600Y-135794000D03*
X216704600Y-135794000D03*
X217365000Y-135794000D03*
X218000000Y-135794000D03*
X218660400Y-135794000D03*
X219308100Y-135794000D03*
X219955800Y-135794000D03*
X219955800Y-130206000D03*
X219308100Y-130206000D03*
X218660400Y-130206000D03*
X218000000Y-130206000D03*
X217352300Y-130206000D03*
X216704600Y-130206000D03*
X216056900Y-130206000D03*
D18*
X234250700Y-135000000D03*
X235749300Y-135000000D03*
D19*
X210000000Y-143000000D03*
D20*
X212000000Y-143000000D03*
X214000000Y-143000000D03*
X216000000Y-143000000D03*
X218000000Y-143000000D03*
X220000000Y-143000000D03*
X222000000Y-143000000D03*
X224000000Y-143000000D03*
X226000000Y-143000000D03*
D21*
X204000000Y-130500000D03*
X232500000Y-130500000D03*
X211500000Y-135000000D03*
X215500000Y-137000000D03*
X224500000Y-122000000D03*
X209750000Y-131750000D03*
X217000000Y-134000000D03*
X215000000Y-126500000D03*
X222000000Y-138000000D03*
X211500000Y-139000000D03*
X205000000Y-141500000D03*
X219500000Y-139000000D03*
X201500000Y-135000000D03*
X219500000Y-137500000D03*
X231750000Y-120000000D03*
X221000000Y-136500000D03*
X227000000Y-136500000D03*
X227500000Y-122500000D03*
X222500000Y-119500000D03*
X229000000Y-121000000D03*
X223500000Y-118000000D03*
D22*
X212000000Y-145750000D02*
X212250000Y-146000000D01*
X212000000Y-143000000D02*
X212000000Y-145750000D01*
X218250000Y-142750000D02*
X218000000Y-143000000D01*
X218250000Y-140500000D02*
X218250000Y-142750000D01*
X216069600Y-136430400D02*
X215500000Y-137000000D01*
X216069600Y-135794000D02*
X216069600Y-136430400D01*
X216000000Y-140750000D02*
X215750000Y-140500000D01*
X216000000Y-143000000D02*
X216000000Y-140750000D01*
X214250000Y-142750000D02*
X214000000Y-143000000D01*
X214250000Y-140500000D02*
X214250000Y-142750000D01*
X219750000Y-142750000D02*
X220000000Y-143000000D01*
X219750000Y-140500000D02*
X219750000Y-142750000D01*
X222000000Y-140000000D02*
X224500000Y-137500000D01*
X224500000Y-137500000D02*
X224500000Y-131500000D01*
X224500000Y-131500000D02*
X223206000Y-130206000D01*
X223206000Y-130206000D02*
X219955800Y-130206000D01*
X222000000Y-143000000D02*
X222000000Y-140000000D01*
X224500000Y-128912000D02*
X224500000Y-122000000D01*
X223206000Y-130206000D02*
X224500000Y-128912000D01*
X206190000Y-122190000D02*
X210000000Y-126000000D01*
X210000000Y-126000000D02*
X209750000Y-131750000D01*
X217000000Y-134000000D02*
X216704600Y-134295400D01*
X206190000Y-116270000D02*
X206190000Y-122190000D01*
X216704600Y-134295400D02*
X216704600Y-135794000D01*
X217365000Y-135794000D02*
X217365000Y-137135000D01*
X216500000Y-138000000D02*
X217365000Y-137135000D01*
X212500000Y-138000000D02*
X216500000Y-138000000D01*
X212500000Y-136000000D02*
X212500000Y-138000000D01*
X215000000Y-126500000D02*
X215000000Y-136000000D01*
X215000000Y-136000000D02*
X212500000Y-136000000D01*
X222000000Y-138000000D02*
X222000000Y-132000000D01*
X222000000Y-132000000D02*
X220000000Y-132000000D01*
X220000000Y-132000000D02*
X219308100Y-131308100D01*
X219308100Y-131308100D02*
X219308100Y-130206000D01*
X228040000Y-116500000D02*
X219308100Y-125231900D01*
X219308100Y-125231900D02*
X219308100Y-130206000D01*
X228040000Y-114000000D02*
X228040000Y-116500000D01*
X218000000Y-138500000D02*
X217500000Y-139000000D01*
X217500000Y-139000000D02*
X212000000Y-139000000D01*
X218000000Y-135794000D02*
X218000000Y-138500000D01*
X211500000Y-139000000D02*
X217500000Y-139000000D01*
X199250000Y-147250000D02*
X205000000Y-141500000D01*
X199000000Y-147250000D02*
X199250000Y-147250000D01*
X201500000Y-135000000D02*
X201500000Y-135000000D01*
X218660400Y-138160400D02*
X218660400Y-135794000D01*
X219500000Y-139000000D02*
X218660400Y-138160400D01*
X199000000Y-121250000D02*
X199000000Y-132500000D01*
X199000000Y-132500000D02*
X201500000Y-135000000D01*
X219308100Y-135794000D02*
X219308100Y-137308100D01*
X219500000Y-137500000D02*
X219308100Y-137308100D01*
X231750000Y-120000000D02*
X237000000Y-117000000D01*
X237000000Y-117000000D02*
X237000000Y-116750000D01*
X220000000Y-136000000D02*
X219955800Y-135794000D01*
X227000000Y-136500000D02*
X233500000Y-136500000D01*
X233500000Y-136500000D02*
X234000000Y-136500000D01*
X234000000Y-136500000D02*
X234500000Y-136500000D01*
X234500000Y-136500000D02*
X237000000Y-139000000D01*
X237000000Y-139000000D02*
X237000000Y-142750000D01*
X220000000Y-136000000D02*
X220500000Y-136000000D01*
X221000000Y-136500000D02*
X220500000Y-136000000D01*
X234250700Y-129250700D02*
X227500000Y-122500000D01*
X222500000Y-119500000D02*
X221000000Y-119500000D01*
X221000000Y-119500000D02*
X218500000Y-119500000D01*
X218500000Y-119500000D02*
X217352300Y-120647700D01*
X217352300Y-120647700D02*
X217352300Y-130206000D01*
X234250700Y-135000000D02*
X234250700Y-129250700D01*
X235749300Y-127749300D02*
X229000000Y-121000000D01*
X223500000Y-118000000D02*
X218500000Y-118000000D01*
X218500000Y-118000000D02*
X218000000Y-118500000D01*
X235749300Y-128500000D02*
X235749300Y-127749300D01*
X235749300Y-135000000D02*
X235749300Y-128500000D01*
X216704600Y-119795400D02*
X218500000Y-118000000D01*
X216704600Y-130206000D02*
X216704600Y-119795400D01*
G36*
X216343129Y-137079240D02*
X216184369Y-137238000D01*
X213262000Y-137238000D01*
X213262000Y-136762000D01*
X215000000Y-136762000D01*
X215291605Y-136703996D01*
X215329521Y-136678661D01*
X215381413Y-136803939D01*
X215560042Y-136982567D01*
X215793431Y-137079240D01*
X215835920Y-137079240D01*
X215994670Y-136920490D01*
X215994670Y-136751445D01*
X216016413Y-136803938D01*
X216195041Y-136982567D01*
X216214785Y-136990745D01*
X216303280Y-137079240D01*
X216343129Y-137079240D01*
X216343129Y-137079240D01*
G37*
X216343129Y-137079240D02*
X216184369Y-137238000D01*
X213262000Y-137238000D01*
X213262000Y-136762000D01*
X215000000Y-136762000D01*
X215291605Y-136703996D01*
X215329521Y-136678661D01*
X215381413Y-136803939D01*
X215560042Y-136982567D01*
X215793431Y-137079240D01*
X215835920Y-137079240D01*
X215994670Y-136920490D01*
X215994670Y-136751445D01*
X216016413Y-136803938D01*
X216195041Y-136982567D01*
X216214785Y-136990745D01*
X216303280Y-137079240D01*
X216343129Y-137079240D01*
G36*
X218534825Y-139490924D02*
X218377000Y-139648750D01*
X218377000Y-140373000D01*
X218397000Y-140373000D01*
X218397000Y-140627000D01*
X218377000Y-140627000D01*
X218377000Y-140647000D01*
X218123000Y-140647000D01*
X218123000Y-140627000D01*
X217373750Y-140627000D01*
X217215000Y-140785750D01*
X217215000Y-141001310D01*
X217311673Y-141234699D01*
X217490302Y-141413327D01*
X217537510Y-141432881D01*
X217110460Y-141664855D01*
X217017601Y-141779569D01*
X216979343Y-141722312D01*
X216762000Y-141577088D01*
X216762000Y-141056836D01*
X216785000Y-141001310D01*
X216785000Y-140748691D01*
X216785000Y-139998691D01*
X216688327Y-139765302D01*
X216685025Y-139762000D01*
X217314974Y-139762000D01*
X217311673Y-139765301D01*
X217215000Y-139998690D01*
X217215000Y-140214250D01*
X217373750Y-140373000D01*
X218123000Y-140373000D01*
X218123000Y-139648750D01*
X218023379Y-139549129D01*
X218038815Y-139538815D01*
X218420362Y-139157268D01*
X218420313Y-139213784D01*
X218534825Y-139490924D01*
X218534825Y-139490924D01*
G37*
X218534825Y-139490924D02*
X218377000Y-139648750D01*
X218377000Y-140373000D01*
X218397000Y-140373000D01*
X218397000Y-140627000D01*
X218377000Y-140627000D01*
X218377000Y-140647000D01*
X218123000Y-140647000D01*
X218123000Y-140627000D01*
X217373750Y-140627000D01*
X217215000Y-140785750D01*
X217215000Y-141001310D01*
X217311673Y-141234699D01*
X217490302Y-141413327D01*
X217537510Y-141432881D01*
X217110460Y-141664855D01*
X217017601Y-141779569D01*
X216979343Y-141722312D01*
X216762000Y-141577088D01*
X216762000Y-141056836D01*
X216785000Y-141001310D01*
X216785000Y-140748691D01*
X216785000Y-139998691D01*
X216688327Y-139765302D01*
X216685025Y-139762000D01*
X217314974Y-139762000D01*
X217311673Y-139765301D01*
X217215000Y-139998690D01*
X217215000Y-140214250D01*
X217373750Y-140373000D01*
X218123000Y-140373000D01*
X218123000Y-139648750D01*
X218023379Y-139549129D01*
X218038815Y-139538815D01*
X218420362Y-139157268D01*
X218420313Y-139213784D01*
X218534825Y-139490924D01*
G36*
X236873000Y-148947395D02*
X235635197Y-150185198D01*
X235635197Y-148275225D01*
X235635197Y-141275225D01*
X235462767Y-140857914D01*
X235143765Y-140538355D01*
X234726756Y-140365197D01*
X234275225Y-140364803D01*
X233857914Y-140537233D01*
X233538355Y-140856235D01*
X233365197Y-141273244D01*
X233364803Y-141724775D01*
X233537233Y-142142086D01*
X233856235Y-142461645D01*
X234273244Y-142634803D01*
X234724775Y-142635197D01*
X235142086Y-142462767D01*
X235461645Y-142143765D01*
X235634803Y-141726756D01*
X235635197Y-141275225D01*
X235635197Y-148275225D01*
X235462767Y-147857914D01*
X235143765Y-147538355D01*
X234726756Y-147365197D01*
X234275225Y-147364803D01*
X233857914Y-147537233D01*
X233538355Y-147856235D01*
X233365197Y-148273244D01*
X233364803Y-148724775D01*
X233537233Y-149142086D01*
X233856235Y-149461645D01*
X234273244Y-149634803D01*
X234724775Y-149635197D01*
X235142086Y-149462767D01*
X235461645Y-149143765D01*
X235634803Y-148726756D01*
X235635197Y-148275225D01*
X235635197Y-150185198D01*
X234947395Y-150873000D01*
X227385000Y-150873000D01*
X227385000Y-143393000D01*
X227385000Y-143127000D01*
X227385000Y-142873000D01*
X227385000Y-142607000D01*
X227230972Y-142086651D01*
X226889540Y-141664855D01*
X226412684Y-141405827D01*
X226341185Y-141391682D01*
X226127000Y-141514344D01*
X226127000Y-142873000D01*
X227385000Y-142873000D01*
X227385000Y-143127000D01*
X226127000Y-143127000D01*
X226127000Y-144485656D01*
X226341185Y-144608318D01*
X226412684Y-144594173D01*
X226889540Y-144335145D01*
X227230972Y-143913349D01*
X227385000Y-143393000D01*
X227385000Y-150873000D01*
X224308600Y-150873000D01*
X224308600Y-150815255D01*
X224194526Y-150241766D01*
X223869670Y-149755585D01*
X223383489Y-149430729D01*
X222810000Y-149316655D01*
X222236511Y-149430729D01*
X221750330Y-149755585D01*
X221540000Y-150070365D01*
X221329670Y-149755585D01*
X220843489Y-149430729D01*
X220270000Y-149316655D01*
X219696511Y-149430729D01*
X219210330Y-149755585D01*
X219000000Y-150070365D01*
X218789670Y-149755585D01*
X218303489Y-149430729D01*
X217730000Y-149316655D01*
X217156511Y-149430729D01*
X216670330Y-149755585D01*
X216655500Y-149777779D01*
X216591927Y-149624301D01*
X216413298Y-149445673D01*
X216179909Y-149349000D01*
X215475750Y-149349000D01*
X215317000Y-149507750D01*
X215317000Y-150873000D01*
X215063000Y-150873000D01*
X215063000Y-149507750D01*
X214904250Y-149349000D01*
X214785000Y-149349000D01*
X214785000Y-146501310D01*
X214785000Y-146285750D01*
X214785000Y-145714250D01*
X214785000Y-145498690D01*
X214688327Y-145265301D01*
X214509698Y-145086673D01*
X214276309Y-144990000D01*
X214035750Y-144990000D01*
X213877000Y-145148750D01*
X213877000Y-145873000D01*
X214626250Y-145873000D01*
X214785000Y-145714250D01*
X214785000Y-146285750D01*
X214626250Y-146127000D01*
X213877000Y-146127000D01*
X213877000Y-146851250D01*
X214035750Y-147010000D01*
X214276309Y-147010000D01*
X214509698Y-146913327D01*
X214688327Y-146734699D01*
X214785000Y-146501310D01*
X214785000Y-149349000D01*
X214200091Y-149349000D01*
X213966702Y-149445673D01*
X213788073Y-149624301D01*
X213691400Y-149857690D01*
X213691400Y-150110309D01*
X213691400Y-150714250D01*
X213850148Y-150872998D01*
X213691400Y-150872998D01*
X213691400Y-150873000D01*
X202635197Y-150873000D01*
X202635197Y-148275225D01*
X202462767Y-147857914D01*
X202143765Y-147538355D01*
X201726756Y-147365197D01*
X201275225Y-147364803D01*
X200857914Y-147537233D01*
X200538355Y-147856235D01*
X200365197Y-148273244D01*
X200364803Y-148724775D01*
X200537233Y-149142086D01*
X200856235Y-149461645D01*
X201273244Y-149634803D01*
X201724775Y-149635197D01*
X202142086Y-149462767D01*
X202461645Y-149143765D01*
X202634803Y-148726756D01*
X202635197Y-148275225D01*
X202635197Y-150873000D01*
X201052605Y-150873000D01*
X199127000Y-148947395D01*
X199127000Y-148385111D01*
X199224775Y-148385197D01*
X199642086Y-148212767D01*
X199961645Y-147893765D01*
X200134803Y-147476756D01*
X200134832Y-147442797D01*
X204998130Y-142579499D01*
X205213784Y-142579687D01*
X205610689Y-142415689D01*
X205914622Y-142112286D01*
X206079313Y-141715668D01*
X206079687Y-141286216D01*
X205915689Y-140889311D01*
X205612286Y-140585378D01*
X205215668Y-140420687D01*
X204786216Y-140420313D01*
X204389311Y-140584311D01*
X204085378Y-140887714D01*
X203920687Y-141284332D01*
X203920497Y-141501872D01*
X202635197Y-142787172D01*
X202635197Y-141275225D01*
X202635197Y-122275225D01*
X202635197Y-115275225D01*
X202462767Y-114857914D01*
X202143765Y-114538355D01*
X201726756Y-114365197D01*
X201275225Y-114364803D01*
X200857914Y-114537233D01*
X200538355Y-114856235D01*
X200365197Y-115273244D01*
X200364803Y-115724775D01*
X200537233Y-116142086D01*
X200856235Y-116461645D01*
X201273244Y-116634803D01*
X201724775Y-116635197D01*
X202142086Y-116462767D01*
X202461645Y-116143765D01*
X202634803Y-115726756D01*
X202635197Y-115275225D01*
X202635197Y-122275225D01*
X202462767Y-121857914D01*
X202143765Y-121538355D01*
X201726756Y-121365197D01*
X201275225Y-121364803D01*
X200857914Y-121537233D01*
X200538355Y-121856235D01*
X200365197Y-122273244D01*
X200364803Y-122724775D01*
X200537233Y-123142086D01*
X200856235Y-123461645D01*
X201273244Y-123634803D01*
X201724775Y-123635197D01*
X202142086Y-123462767D01*
X202461645Y-123143765D01*
X202634803Y-122726756D01*
X202635197Y-122275225D01*
X202635197Y-141275225D01*
X202462767Y-140857914D01*
X202143765Y-140538355D01*
X201726756Y-140365197D01*
X201275225Y-140364803D01*
X200857914Y-140537233D01*
X200538355Y-140856235D01*
X200365197Y-141273244D01*
X200364803Y-141724775D01*
X200537233Y-142142086D01*
X200856235Y-142461645D01*
X201273244Y-142634803D01*
X201724775Y-142635197D01*
X202142086Y-142462767D01*
X202461645Y-142143765D01*
X202634803Y-141726756D01*
X202635197Y-141275225D01*
X202635197Y-142787172D01*
X200148112Y-145274257D01*
X200148112Y-142895028D01*
X200116217Y-142444625D01*
X200005217Y-142176648D01*
X199790104Y-142139501D01*
X199179605Y-142750000D01*
X199790104Y-143360499D01*
X200005217Y-143323352D01*
X200148112Y-142895028D01*
X200148112Y-145274257D01*
X199283578Y-146138791D01*
X199226756Y-146115197D01*
X199127000Y-146115109D01*
X199127000Y-143878848D01*
X199305375Y-143866217D01*
X199573352Y-143755217D01*
X199610499Y-143540104D01*
X199127000Y-143056605D01*
X199127000Y-142443395D01*
X199610499Y-141959896D01*
X199573352Y-141744783D01*
X199145028Y-141601888D01*
X199127000Y-141603164D01*
X199127000Y-133704630D01*
X200420500Y-134998130D01*
X200420313Y-135213784D01*
X200584311Y-135610689D01*
X200887714Y-135914622D01*
X201284332Y-136079313D01*
X201713784Y-136079687D01*
X202110689Y-135915689D01*
X202414622Y-135612286D01*
X202579313Y-135215668D01*
X202579687Y-134786216D01*
X202415689Y-134389311D01*
X202112286Y-134085378D01*
X201715668Y-133920687D01*
X201498127Y-133920497D01*
X200148112Y-132570482D01*
X200148112Y-116895028D01*
X200116217Y-116444625D01*
X200005217Y-116176648D01*
X199790104Y-116139501D01*
X199179605Y-116750000D01*
X199790104Y-117360499D01*
X200005217Y-117323352D01*
X200148112Y-116895028D01*
X200148112Y-132570482D01*
X199762000Y-132184370D01*
X199762000Y-122093062D01*
X199961645Y-121893765D01*
X200134803Y-121476756D01*
X200135197Y-121025225D01*
X199962767Y-120607914D01*
X199643765Y-120288355D01*
X199226756Y-120115197D01*
X199127000Y-120115109D01*
X199127000Y-117878848D01*
X199305375Y-117866217D01*
X199573352Y-117755217D01*
X199610499Y-117540104D01*
X199127000Y-117056605D01*
X199127000Y-116443395D01*
X199610499Y-115959896D01*
X199573352Y-115744783D01*
X199145028Y-115601888D01*
X199127000Y-115603164D01*
X199127000Y-115052605D01*
X201052605Y-113127000D01*
X204795833Y-113127000D01*
X204776115Y-113156511D01*
X204662041Y-113730000D01*
X204776115Y-114303489D01*
X205100971Y-114789670D01*
X205122023Y-114803736D01*
X204966702Y-114868073D01*
X204788073Y-115046701D01*
X204691400Y-115280090D01*
X204691400Y-115532709D01*
X204691400Y-117259909D01*
X204788073Y-117493298D01*
X204966701Y-117671927D01*
X205200090Y-117768600D01*
X205428000Y-117768600D01*
X205428000Y-122190000D01*
X205486004Y-122481605D01*
X205651185Y-122728815D01*
X209224158Y-126301789D01*
X209022000Y-130951416D01*
X208835378Y-131137714D01*
X208670687Y-131534332D01*
X208670313Y-131963784D01*
X208834311Y-132360689D01*
X209137714Y-132664622D01*
X209534332Y-132829313D01*
X209963784Y-132829687D01*
X210360689Y-132665689D01*
X210664622Y-132362286D01*
X210829313Y-131965668D01*
X210829687Y-131536216D01*
X210665689Y-131139311D01*
X210544547Y-131017958D01*
X210761281Y-126033099D01*
X210758720Y-126016485D01*
X210762000Y-126000000D01*
X210736166Y-125870127D01*
X210715998Y-125739250D01*
X210707275Y-125724881D01*
X210703996Y-125708396D01*
X210630425Y-125598289D01*
X210561711Y-125485098D01*
X210548155Y-125475162D01*
X210538816Y-125461185D01*
X206952000Y-121874369D01*
X206952000Y-117768600D01*
X207179909Y-117768600D01*
X207413298Y-117671927D01*
X207591927Y-117493299D01*
X207674528Y-117293880D01*
X207841510Y-117476821D01*
X208370973Y-117724968D01*
X208603000Y-117604469D01*
X208603000Y-116397000D01*
X208583000Y-116397000D01*
X208583000Y-116143000D01*
X208603000Y-116143000D01*
X208603000Y-116123000D01*
X208857000Y-116123000D01*
X208857000Y-116143000D01*
X208877000Y-116143000D01*
X208877000Y-116397000D01*
X208857000Y-116397000D01*
X208857000Y-117604469D01*
X209089027Y-117724968D01*
X209618490Y-117476821D01*
X210000007Y-117058839D01*
X210180971Y-117329670D01*
X210667152Y-117654526D01*
X211240641Y-117768600D01*
X211299359Y-117768600D01*
X211872848Y-117654526D01*
X212359029Y-117329670D01*
X212539992Y-117058839D01*
X212921510Y-117476821D01*
X213450973Y-117724968D01*
X213683000Y-117604469D01*
X213683000Y-116397000D01*
X213663000Y-116397000D01*
X213663000Y-116143000D01*
X213683000Y-116143000D01*
X213683000Y-116123000D01*
X213937000Y-116123000D01*
X213937000Y-116143000D01*
X215143817Y-116143000D01*
X215264958Y-115910974D01*
X215092688Y-115495053D01*
X214698490Y-115063179D01*
X214575771Y-115005663D01*
X214899029Y-114789670D01*
X215223885Y-114303489D01*
X215337959Y-113730000D01*
X215223885Y-113156511D01*
X215204166Y-113127000D01*
X218921400Y-113127000D01*
X218921400Y-113714250D01*
X219080150Y-113873000D01*
X220293000Y-113873000D01*
X220293000Y-113853000D01*
X220547000Y-113853000D01*
X220547000Y-113873000D01*
X220567000Y-113873000D01*
X220567000Y-114127000D01*
X220547000Y-114127000D01*
X220547000Y-115492250D01*
X220705750Y-115651000D01*
X221409909Y-115651000D01*
X221643298Y-115554327D01*
X221821927Y-115375699D01*
X221885500Y-115222220D01*
X221900330Y-115244415D01*
X222386511Y-115569271D01*
X222960000Y-115683345D01*
X223533489Y-115569271D01*
X224019670Y-115244415D01*
X224230000Y-114929634D01*
X224440330Y-115244415D01*
X224926511Y-115569271D01*
X225500000Y-115683345D01*
X226073489Y-115569271D01*
X226559670Y-115244415D01*
X226770000Y-114929634D01*
X226980330Y-115244415D01*
X227278000Y-115443311D01*
X227278000Y-116184369D01*
X223460450Y-120001918D01*
X223579313Y-119715668D01*
X223579687Y-119286216D01*
X223494271Y-119079495D01*
X223713784Y-119079687D01*
X224110689Y-118915689D01*
X224414622Y-118612286D01*
X224579313Y-118215668D01*
X224579687Y-117786216D01*
X224415689Y-117389311D01*
X224112286Y-117085378D01*
X223715668Y-116920687D01*
X223286216Y-116920313D01*
X222889311Y-117084311D01*
X222735353Y-117238000D01*
X220293000Y-117238000D01*
X220293000Y-115492250D01*
X220293000Y-114127000D01*
X219080150Y-114127000D01*
X218921400Y-114285750D01*
X218921400Y-114889691D01*
X218921400Y-115142310D01*
X219018073Y-115375699D01*
X219196702Y-115554327D01*
X219430091Y-115651000D01*
X220134250Y-115651000D01*
X220293000Y-115492250D01*
X220293000Y-117238000D01*
X218500000Y-117238000D01*
X218208395Y-117296004D01*
X218109376Y-117362165D01*
X217961185Y-117461184D01*
X217461185Y-117961185D01*
X216165785Y-119256585D01*
X216000604Y-119503795D01*
X215942600Y-119795400D01*
X215942600Y-125954440D01*
X215915689Y-125889311D01*
X215612286Y-125585378D01*
X215264958Y-125441154D01*
X215264958Y-116629026D01*
X215143817Y-116397000D01*
X213937000Y-116397000D01*
X213937000Y-117604469D01*
X214169027Y-117724968D01*
X214698490Y-117476821D01*
X215092688Y-117044947D01*
X215264958Y-116629026D01*
X215264958Y-125441154D01*
X215215668Y-125420687D01*
X214786216Y-125420313D01*
X214389311Y-125584311D01*
X214085378Y-125887714D01*
X213920687Y-126284332D01*
X213920313Y-126713784D01*
X214084311Y-127110689D01*
X214238000Y-127264646D01*
X214238000Y-135238000D01*
X212500000Y-135238000D01*
X212208395Y-135296004D01*
X211961185Y-135461185D01*
X211796004Y-135708395D01*
X211738000Y-136000000D01*
X211738000Y-137929960D01*
X211715668Y-137920687D01*
X211286216Y-137920313D01*
X210889311Y-138084311D01*
X210585378Y-138387714D01*
X210420687Y-138784332D01*
X210420313Y-139213784D01*
X210584311Y-139610689D01*
X210887714Y-139914622D01*
X211284332Y-140079313D01*
X211713784Y-140079687D01*
X212110689Y-139915689D01*
X212264646Y-139762000D01*
X213314974Y-139762000D01*
X213311673Y-139765301D01*
X213215000Y-139998690D01*
X213215000Y-140251309D01*
X213215000Y-141001309D01*
X213311673Y-141234698D01*
X213488000Y-141411025D01*
X213488000Y-141418498D01*
X213469983Y-141422082D01*
X213020657Y-141722312D01*
X213000000Y-141753227D01*
X212979343Y-141722312D01*
X212530017Y-141422082D01*
X212000000Y-141316655D01*
X211469983Y-141422082D01*
X211239866Y-141575841D01*
X211109699Y-141445673D01*
X210876310Y-141349000D01*
X210623691Y-141349000D01*
X209123691Y-141349000D01*
X208890302Y-141445673D01*
X208711673Y-141624301D01*
X208615000Y-141857690D01*
X208615000Y-142110309D01*
X208615000Y-144142309D01*
X208711673Y-144375698D01*
X208890301Y-144554327D01*
X209123690Y-144651000D01*
X209376309Y-144651000D01*
X210876309Y-144651000D01*
X211109698Y-144554327D01*
X211238000Y-144426025D01*
X211238000Y-145443163D01*
X211215000Y-145498690D01*
X211215000Y-145751309D01*
X211215000Y-146501309D01*
X211311673Y-146734698D01*
X211490301Y-146913327D01*
X211723690Y-147010000D01*
X211976309Y-147010000D01*
X212776309Y-147010000D01*
X213000000Y-146917344D01*
X213223691Y-147010000D01*
X213464250Y-147010000D01*
X213623000Y-146851250D01*
X213623000Y-146127000D01*
X213603000Y-146127000D01*
X213603000Y-145873000D01*
X213623000Y-145873000D01*
X213623000Y-145148750D01*
X213464250Y-144990000D01*
X213223691Y-144990000D01*
X213000000Y-145082655D01*
X212776310Y-144990000D01*
X212762000Y-144990000D01*
X212762000Y-144422911D01*
X212979343Y-144277688D01*
X213000000Y-144246772D01*
X213020657Y-144277688D01*
X213469983Y-144577918D01*
X214000000Y-144683345D01*
X214530017Y-144577918D01*
X214979343Y-144277688D01*
X215000000Y-144246772D01*
X215020657Y-144277688D01*
X215469983Y-144577918D01*
X216000000Y-144683345D01*
X216530017Y-144577918D01*
X216979343Y-144277688D01*
X217017601Y-144220430D01*
X217110460Y-144335145D01*
X217587316Y-144594173D01*
X217658815Y-144608318D01*
X217873000Y-144485656D01*
X217873000Y-143127000D01*
X217853000Y-143127000D01*
X217853000Y-142873000D01*
X217873000Y-142873000D01*
X217873000Y-142853000D01*
X218127000Y-142853000D01*
X218127000Y-142873000D01*
X218147000Y-142873000D01*
X218147000Y-143127000D01*
X218127000Y-143127000D01*
X218127000Y-144485656D01*
X218341185Y-144608318D01*
X218412684Y-144594173D01*
X218889540Y-144335145D01*
X218982398Y-144220430D01*
X219020657Y-144277688D01*
X219469983Y-144577918D01*
X220000000Y-144683345D01*
X220530017Y-144577918D01*
X220979343Y-144277688D01*
X221000000Y-144246772D01*
X221020657Y-144277688D01*
X221469983Y-144577918D01*
X222000000Y-144683345D01*
X222530017Y-144577918D01*
X222979343Y-144277688D01*
X223000000Y-144246772D01*
X223020657Y-144277688D01*
X223469983Y-144577918D01*
X224000000Y-144683345D01*
X224530017Y-144577918D01*
X224979343Y-144277688D01*
X225017601Y-144220430D01*
X225110460Y-144335145D01*
X225587316Y-144594173D01*
X225658815Y-144608318D01*
X225873000Y-144485656D01*
X225873000Y-143127000D01*
X225853000Y-143127000D01*
X225853000Y-142873000D01*
X225873000Y-142873000D01*
X225873000Y-141514344D01*
X225658815Y-141391682D01*
X225587316Y-141405827D01*
X225110460Y-141664855D01*
X225017601Y-141779569D01*
X224979343Y-141722312D01*
X224530017Y-141422082D01*
X224000000Y-141316655D01*
X223469983Y-141422082D01*
X223020657Y-141722312D01*
X223000000Y-141753227D01*
X222979343Y-141722312D01*
X222762000Y-141577088D01*
X222762000Y-140315630D01*
X225038815Y-138038815D01*
X225203996Y-137791605D01*
X225203996Y-137791604D01*
X225262000Y-137500000D01*
X225262000Y-131500000D01*
X225203996Y-131208395D01*
X225038815Y-130961185D01*
X225038815Y-130961184D01*
X224283630Y-130206000D01*
X225038815Y-129450816D01*
X225038815Y-129450815D01*
X225203996Y-129203605D01*
X225261999Y-128912000D01*
X225262000Y-128912000D01*
X225262000Y-122764641D01*
X225414622Y-122612286D01*
X225579313Y-122215668D01*
X225579687Y-121786216D01*
X225415689Y-121389311D01*
X225112286Y-121085378D01*
X224715668Y-120920687D01*
X224696959Y-120920670D01*
X228578815Y-117038816D01*
X228578815Y-117038815D01*
X228743996Y-116791605D01*
X228801999Y-116500000D01*
X228802000Y-116500000D01*
X228802000Y-115443311D01*
X229099670Y-115244415D01*
X229306460Y-114934930D01*
X229677964Y-115350732D01*
X230205209Y-115604709D01*
X230220974Y-115607358D01*
X230453000Y-115486217D01*
X230453000Y-114127000D01*
X230433000Y-114127000D01*
X230433000Y-113873000D01*
X230453000Y-113873000D01*
X230453000Y-113853000D01*
X230707000Y-113853000D01*
X230707000Y-113873000D01*
X231920924Y-113873000D01*
X232065184Y-113638087D01*
X231886407Y-113127000D01*
X234947395Y-113127000D01*
X236873000Y-115052605D01*
X236873000Y-115614888D01*
X236775225Y-115614803D01*
X236357914Y-115787233D01*
X236038355Y-116106235D01*
X235865197Y-116523244D01*
X235864980Y-116770948D01*
X235635197Y-116902252D01*
X235635197Y-115275225D01*
X235462767Y-114857914D01*
X235143765Y-114538355D01*
X234726756Y-114365197D01*
X234275225Y-114364803D01*
X233857914Y-114537233D01*
X233538355Y-114856235D01*
X233365197Y-115273244D01*
X233364803Y-115724775D01*
X233537233Y-116142086D01*
X233856235Y-116461645D01*
X234273244Y-116634803D01*
X234724775Y-116635197D01*
X235142086Y-116462767D01*
X235461645Y-116143765D01*
X235634803Y-115726756D01*
X235635197Y-115275225D01*
X235635197Y-116902252D01*
X232065184Y-118942259D01*
X232065184Y-114361913D01*
X231920924Y-114127000D01*
X230707000Y-114127000D01*
X230707000Y-115486217D01*
X230939026Y-115607358D01*
X230954791Y-115604709D01*
X231482036Y-115350732D01*
X231871954Y-114914320D01*
X232065184Y-114361913D01*
X232065184Y-118942259D01*
X232045167Y-118953698D01*
X231965668Y-118920687D01*
X231536216Y-118920313D01*
X231139311Y-119084311D01*
X230835378Y-119387714D01*
X230670687Y-119784332D01*
X230670313Y-120213784D01*
X230834311Y-120610689D01*
X231137714Y-120914622D01*
X231534332Y-121079313D01*
X231963784Y-121079687D01*
X232360689Y-120915689D01*
X232664622Y-120612286D01*
X232804696Y-120274950D01*
X236873000Y-117950205D01*
X236873000Y-120121151D01*
X236694625Y-120133783D01*
X236426648Y-120244783D01*
X236389501Y-120459896D01*
X236873000Y-120943395D01*
X236873000Y-121556605D01*
X236820395Y-121609210D01*
X236820395Y-121250000D01*
X236209896Y-120639501D01*
X235994783Y-120676648D01*
X235851888Y-121104972D01*
X235883783Y-121555375D01*
X235994783Y-121823352D01*
X236209896Y-121860499D01*
X236820395Y-121250000D01*
X236820395Y-121609210D01*
X236389501Y-122040104D01*
X236426648Y-122255217D01*
X236854972Y-122398112D01*
X236873000Y-122396835D01*
X236873000Y-134746407D01*
X236712389Y-134357699D01*
X236511300Y-134156258D01*
X236511300Y-128500000D01*
X236511300Y-127749300D01*
X236453297Y-127457696D01*
X236453296Y-127457695D01*
X236288116Y-127210485D01*
X235635197Y-126557566D01*
X235635197Y-122275225D01*
X235462767Y-121857914D01*
X235143765Y-121538355D01*
X234726756Y-121365197D01*
X234275225Y-121364803D01*
X233857914Y-121537233D01*
X233538355Y-121856235D01*
X233365197Y-122273244D01*
X233364803Y-122724775D01*
X233537233Y-123142086D01*
X233856235Y-123461645D01*
X234273244Y-123634803D01*
X234724775Y-123635197D01*
X235142086Y-123462767D01*
X235461645Y-123143765D01*
X235634803Y-122726756D01*
X235635197Y-122275225D01*
X235635197Y-126557566D01*
X230079499Y-121001869D01*
X230079687Y-120786216D01*
X229915689Y-120389311D01*
X229612286Y-120085378D01*
X229215668Y-119920687D01*
X228786216Y-119920313D01*
X228389311Y-120084311D01*
X228085378Y-120387714D01*
X227920687Y-120784332D01*
X227920313Y-121213784D01*
X228065892Y-121566113D01*
X227715668Y-121420687D01*
X227286216Y-121420313D01*
X226889311Y-121584311D01*
X226585378Y-121887714D01*
X226420687Y-122284332D01*
X226420313Y-122713784D01*
X226584311Y-123110689D01*
X226887714Y-123414622D01*
X227284332Y-123579313D01*
X227501872Y-123579502D01*
X233488700Y-129566330D01*
X233488700Y-134156401D01*
X233288733Y-134356019D01*
X233115518Y-134773168D01*
X233115124Y-135224850D01*
X233287611Y-135642301D01*
X233383142Y-135738000D01*
X227764641Y-135738000D01*
X227612286Y-135585378D01*
X227215668Y-135420687D01*
X226786216Y-135420313D01*
X226389311Y-135584311D01*
X226085378Y-135887714D01*
X225920687Y-136284332D01*
X225920313Y-136713784D01*
X226084311Y-137110689D01*
X226387714Y-137414622D01*
X226784332Y-137579313D01*
X227213784Y-137579687D01*
X227610689Y-137415689D01*
X227764646Y-137262000D01*
X233500000Y-137262000D01*
X234000000Y-137262000D01*
X234184370Y-137262000D01*
X236238000Y-139315630D01*
X236238000Y-141906937D01*
X236038355Y-142106235D01*
X235865197Y-142523244D01*
X235864803Y-142974775D01*
X236037233Y-143392086D01*
X236356235Y-143711645D01*
X236773244Y-143884803D01*
X236873000Y-143884890D01*
X236873000Y-146121151D01*
X236694625Y-146133783D01*
X236426648Y-146244783D01*
X236389501Y-146459896D01*
X236873000Y-146943395D01*
X236873000Y-147556605D01*
X236820395Y-147609210D01*
X236820395Y-147250000D01*
X236209896Y-146639501D01*
X235994783Y-146676648D01*
X235851888Y-147104972D01*
X235883783Y-147555375D01*
X235994783Y-147823352D01*
X236209896Y-147860499D01*
X236820395Y-147250000D01*
X236820395Y-147609210D01*
X236389501Y-148040104D01*
X236426648Y-148255217D01*
X236854972Y-148398112D01*
X236873000Y-148396835D01*
X236873000Y-148947395D01*
X236873000Y-148947395D01*
G37*
X236873000Y-148947395D02*
X235635197Y-150185198D01*
X235635197Y-148275225D01*
X235635197Y-141275225D01*
X235462767Y-140857914D01*
X235143765Y-140538355D01*
X234726756Y-140365197D01*
X234275225Y-140364803D01*
X233857914Y-140537233D01*
X233538355Y-140856235D01*
X233365197Y-141273244D01*
X233364803Y-141724775D01*
X233537233Y-142142086D01*
X233856235Y-142461645D01*
X234273244Y-142634803D01*
X234724775Y-142635197D01*
X235142086Y-142462767D01*
X235461645Y-142143765D01*
X235634803Y-141726756D01*
X235635197Y-141275225D01*
X235635197Y-148275225D01*
X235462767Y-147857914D01*
X235143765Y-147538355D01*
X234726756Y-147365197D01*
X234275225Y-147364803D01*
X233857914Y-147537233D01*
X233538355Y-147856235D01*
X233365197Y-148273244D01*
X233364803Y-148724775D01*
X233537233Y-149142086D01*
X233856235Y-149461645D01*
X234273244Y-149634803D01*
X234724775Y-149635197D01*
X235142086Y-149462767D01*
X235461645Y-149143765D01*
X235634803Y-148726756D01*
X235635197Y-148275225D01*
X235635197Y-150185198D01*
X234947395Y-150873000D01*
X227385000Y-150873000D01*
X227385000Y-143393000D01*
X227385000Y-143127000D01*
X227385000Y-142873000D01*
X227385000Y-142607000D01*
X227230972Y-142086651D01*
X226889540Y-141664855D01*
X226412684Y-141405827D01*
X226341185Y-141391682D01*
X226127000Y-141514344D01*
X226127000Y-142873000D01*
X227385000Y-142873000D01*
X227385000Y-143127000D01*
X226127000Y-143127000D01*
X226127000Y-144485656D01*
X226341185Y-144608318D01*
X226412684Y-144594173D01*
X226889540Y-144335145D01*
X227230972Y-143913349D01*
X227385000Y-143393000D01*
X227385000Y-150873000D01*
X224308600Y-150873000D01*
X224308600Y-150815255D01*
X224194526Y-150241766D01*
X223869670Y-149755585D01*
X223383489Y-149430729D01*
X222810000Y-149316655D01*
X222236511Y-149430729D01*
X221750330Y-149755585D01*
X221540000Y-150070365D01*
X221329670Y-149755585D01*
X220843489Y-149430729D01*
X220270000Y-149316655D01*
X219696511Y-149430729D01*
X219210330Y-149755585D01*
X219000000Y-150070365D01*
X218789670Y-149755585D01*
X218303489Y-149430729D01*
X217730000Y-149316655D01*
X217156511Y-149430729D01*
X216670330Y-149755585D01*
X216655500Y-149777779D01*
X216591927Y-149624301D01*
X216413298Y-149445673D01*
X216179909Y-149349000D01*
X215475750Y-149349000D01*
X215317000Y-149507750D01*
X215317000Y-150873000D01*
X215063000Y-150873000D01*
X215063000Y-149507750D01*
X214904250Y-149349000D01*
X214785000Y-149349000D01*
X214785000Y-146501310D01*
X214785000Y-146285750D01*
X214785000Y-145714250D01*
X214785000Y-145498690D01*
X214688327Y-145265301D01*
X214509698Y-145086673D01*
X214276309Y-144990000D01*
X214035750Y-144990000D01*
X213877000Y-145148750D01*
X213877000Y-145873000D01*
X214626250Y-145873000D01*
X214785000Y-145714250D01*
X214785000Y-146285750D01*
X214626250Y-146127000D01*
X213877000Y-146127000D01*
X213877000Y-146851250D01*
X214035750Y-147010000D01*
X214276309Y-147010000D01*
X214509698Y-146913327D01*
X214688327Y-146734699D01*
X214785000Y-146501310D01*
X214785000Y-149349000D01*
X214200091Y-149349000D01*
X213966702Y-149445673D01*
X213788073Y-149624301D01*
X213691400Y-149857690D01*
X213691400Y-150110309D01*
X213691400Y-150714250D01*
X213850148Y-150872998D01*
X213691400Y-150872998D01*
X213691400Y-150873000D01*
X202635197Y-150873000D01*
X202635197Y-148275225D01*
X202462767Y-147857914D01*
X202143765Y-147538355D01*
X201726756Y-147365197D01*
X201275225Y-147364803D01*
X200857914Y-147537233D01*
X200538355Y-147856235D01*
X200365197Y-148273244D01*
X200364803Y-148724775D01*
X200537233Y-149142086D01*
X200856235Y-149461645D01*
X201273244Y-149634803D01*
X201724775Y-149635197D01*
X202142086Y-149462767D01*
X202461645Y-149143765D01*
X202634803Y-148726756D01*
X202635197Y-148275225D01*
X202635197Y-150873000D01*
X201052605Y-150873000D01*
X199127000Y-148947395D01*
X199127000Y-148385111D01*
X199224775Y-148385197D01*
X199642086Y-148212767D01*
X199961645Y-147893765D01*
X200134803Y-147476756D01*
X200134832Y-147442797D01*
X204998130Y-142579499D01*
X205213784Y-142579687D01*
X205610689Y-142415689D01*
X205914622Y-142112286D01*
X206079313Y-141715668D01*
X206079687Y-141286216D01*
X205915689Y-140889311D01*
X205612286Y-140585378D01*
X205215668Y-140420687D01*
X204786216Y-140420313D01*
X204389311Y-140584311D01*
X204085378Y-140887714D01*
X203920687Y-141284332D01*
X203920497Y-141501872D01*
X202635197Y-142787172D01*
X202635197Y-141275225D01*
X202635197Y-122275225D01*
X202635197Y-115275225D01*
X202462767Y-114857914D01*
X202143765Y-114538355D01*
X201726756Y-114365197D01*
X201275225Y-114364803D01*
X200857914Y-114537233D01*
X200538355Y-114856235D01*
X200365197Y-115273244D01*
X200364803Y-115724775D01*
X200537233Y-116142086D01*
X200856235Y-116461645D01*
X201273244Y-116634803D01*
X201724775Y-116635197D01*
X202142086Y-116462767D01*
X202461645Y-116143765D01*
X202634803Y-115726756D01*
X202635197Y-115275225D01*
X202635197Y-122275225D01*
X202462767Y-121857914D01*
X202143765Y-121538355D01*
X201726756Y-121365197D01*
X201275225Y-121364803D01*
X200857914Y-121537233D01*
X200538355Y-121856235D01*
X200365197Y-122273244D01*
X200364803Y-122724775D01*
X200537233Y-123142086D01*
X200856235Y-123461645D01*
X201273244Y-123634803D01*
X201724775Y-123635197D01*
X202142086Y-123462767D01*
X202461645Y-123143765D01*
X202634803Y-122726756D01*
X202635197Y-122275225D01*
X202635197Y-141275225D01*
X202462767Y-140857914D01*
X202143765Y-140538355D01*
X201726756Y-140365197D01*
X201275225Y-140364803D01*
X200857914Y-140537233D01*
X200538355Y-140856235D01*
X200365197Y-141273244D01*
X200364803Y-141724775D01*
X200537233Y-142142086D01*
X200856235Y-142461645D01*
X201273244Y-142634803D01*
X201724775Y-142635197D01*
X202142086Y-142462767D01*
X202461645Y-142143765D01*
X202634803Y-141726756D01*
X202635197Y-141275225D01*
X202635197Y-142787172D01*
X200148112Y-145274257D01*
X200148112Y-142895028D01*
X200116217Y-142444625D01*
X200005217Y-142176648D01*
X199790104Y-142139501D01*
X199179605Y-142750000D01*
X199790104Y-143360499D01*
X200005217Y-143323352D01*
X200148112Y-142895028D01*
X200148112Y-145274257D01*
X199283578Y-146138791D01*
X199226756Y-146115197D01*
X199127000Y-146115109D01*
X199127000Y-143878848D01*
X199305375Y-143866217D01*
X199573352Y-143755217D01*
X199610499Y-143540104D01*
X199127000Y-143056605D01*
X199127000Y-142443395D01*
X199610499Y-141959896D01*
X199573352Y-141744783D01*
X199145028Y-141601888D01*
X199127000Y-141603164D01*
X199127000Y-133704630D01*
X200420500Y-134998130D01*
X200420313Y-135213784D01*
X200584311Y-135610689D01*
X200887714Y-135914622D01*
X201284332Y-136079313D01*
X201713784Y-136079687D01*
X202110689Y-135915689D01*
X202414622Y-135612286D01*
X202579313Y-135215668D01*
X202579687Y-134786216D01*
X202415689Y-134389311D01*
X202112286Y-134085378D01*
X201715668Y-133920687D01*
X201498127Y-133920497D01*
X200148112Y-132570482D01*
X200148112Y-116895028D01*
X200116217Y-116444625D01*
X200005217Y-116176648D01*
X199790104Y-116139501D01*
X199179605Y-116750000D01*
X199790104Y-117360499D01*
X200005217Y-117323352D01*
X200148112Y-116895028D01*
X200148112Y-132570482D01*
X199762000Y-132184370D01*
X199762000Y-122093062D01*
X199961645Y-121893765D01*
X200134803Y-121476756D01*
X200135197Y-121025225D01*
X199962767Y-120607914D01*
X199643765Y-120288355D01*
X199226756Y-120115197D01*
X199127000Y-120115109D01*
X199127000Y-117878848D01*
X199305375Y-117866217D01*
X199573352Y-117755217D01*
X199610499Y-117540104D01*
X199127000Y-117056605D01*
X199127000Y-116443395D01*
X199610499Y-115959896D01*
X199573352Y-115744783D01*
X199145028Y-115601888D01*
X199127000Y-115603164D01*
X199127000Y-115052605D01*
X201052605Y-113127000D01*
X204795833Y-113127000D01*
X204776115Y-113156511D01*
X204662041Y-113730000D01*
X204776115Y-114303489D01*
X205100971Y-114789670D01*
X205122023Y-114803736D01*
X204966702Y-114868073D01*
X204788073Y-115046701D01*
X204691400Y-115280090D01*
X204691400Y-115532709D01*
X204691400Y-117259909D01*
X204788073Y-117493298D01*
X204966701Y-117671927D01*
X205200090Y-117768600D01*
X205428000Y-117768600D01*
X205428000Y-122190000D01*
X205486004Y-122481605D01*
X205651185Y-122728815D01*
X209224158Y-126301789D01*
X209022000Y-130951416D01*
X208835378Y-131137714D01*
X208670687Y-131534332D01*
X208670313Y-131963784D01*
X208834311Y-132360689D01*
X209137714Y-132664622D01*
X209534332Y-132829313D01*
X209963784Y-132829687D01*
X210360689Y-132665689D01*
X210664622Y-132362286D01*
X210829313Y-131965668D01*
X210829687Y-131536216D01*
X210665689Y-131139311D01*
X210544547Y-131017958D01*
X210761281Y-126033099D01*
X210758720Y-126016485D01*
X210762000Y-126000000D01*
X210736166Y-125870127D01*
X210715998Y-125739250D01*
X210707275Y-125724881D01*
X210703996Y-125708396D01*
X210630425Y-125598289D01*
X210561711Y-125485098D01*
X210548155Y-125475162D01*
X210538816Y-125461185D01*
X206952000Y-121874369D01*
X206952000Y-117768600D01*
X207179909Y-117768600D01*
X207413298Y-117671927D01*
X207591927Y-117493299D01*
X207674528Y-117293880D01*
X207841510Y-117476821D01*
X208370973Y-117724968D01*
X208603000Y-117604469D01*
X208603000Y-116397000D01*
X208583000Y-116397000D01*
X208583000Y-116143000D01*
X208603000Y-116143000D01*
X208603000Y-116123000D01*
X208857000Y-116123000D01*
X208857000Y-116143000D01*
X208877000Y-116143000D01*
X208877000Y-116397000D01*
X208857000Y-116397000D01*
X208857000Y-117604469D01*
X209089027Y-117724968D01*
X209618490Y-117476821D01*
X210000007Y-117058839D01*
X210180971Y-117329670D01*
X210667152Y-117654526D01*
X211240641Y-117768600D01*
X211299359Y-117768600D01*
X211872848Y-117654526D01*
X212359029Y-117329670D01*
X212539992Y-117058839D01*
X212921510Y-117476821D01*
X213450973Y-117724968D01*
X213683000Y-117604469D01*
X213683000Y-116397000D01*
X213663000Y-116397000D01*
X213663000Y-116143000D01*
X213683000Y-116143000D01*
X213683000Y-116123000D01*
X213937000Y-116123000D01*
X213937000Y-116143000D01*
X215143817Y-116143000D01*
X215264958Y-115910974D01*
X215092688Y-115495053D01*
X214698490Y-115063179D01*
X214575771Y-115005663D01*
X214899029Y-114789670D01*
X215223885Y-114303489D01*
X215337959Y-113730000D01*
X215223885Y-113156511D01*
X215204166Y-113127000D01*
X218921400Y-113127000D01*
X218921400Y-113714250D01*
X219080150Y-113873000D01*
X220293000Y-113873000D01*
X220293000Y-113853000D01*
X220547000Y-113853000D01*
X220547000Y-113873000D01*
X220567000Y-113873000D01*
X220567000Y-114127000D01*
X220547000Y-114127000D01*
X220547000Y-115492250D01*
X220705750Y-115651000D01*
X221409909Y-115651000D01*
X221643298Y-115554327D01*
X221821927Y-115375699D01*
X221885500Y-115222220D01*
X221900330Y-115244415D01*
X222386511Y-115569271D01*
X222960000Y-115683345D01*
X223533489Y-115569271D01*
X224019670Y-115244415D01*
X224230000Y-114929634D01*
X224440330Y-115244415D01*
X224926511Y-115569271D01*
X225500000Y-115683345D01*
X226073489Y-115569271D01*
X226559670Y-115244415D01*
X226770000Y-114929634D01*
X226980330Y-115244415D01*
X227278000Y-115443311D01*
X227278000Y-116184369D01*
X223460450Y-120001918D01*
X223579313Y-119715668D01*
X223579687Y-119286216D01*
X223494271Y-119079495D01*
X223713784Y-119079687D01*
X224110689Y-118915689D01*
X224414622Y-118612286D01*
X224579313Y-118215668D01*
X224579687Y-117786216D01*
X224415689Y-117389311D01*
X224112286Y-117085378D01*
X223715668Y-116920687D01*
X223286216Y-116920313D01*
X222889311Y-117084311D01*
X222735353Y-117238000D01*
X220293000Y-117238000D01*
X220293000Y-115492250D01*
X220293000Y-114127000D01*
X219080150Y-114127000D01*
X218921400Y-114285750D01*
X218921400Y-114889691D01*
X218921400Y-115142310D01*
X219018073Y-115375699D01*
X219196702Y-115554327D01*
X219430091Y-115651000D01*
X220134250Y-115651000D01*
X220293000Y-115492250D01*
X220293000Y-117238000D01*
X218500000Y-117238000D01*
X218208395Y-117296004D01*
X218109376Y-117362165D01*
X217961185Y-117461184D01*
X217461185Y-117961185D01*
X216165785Y-119256585D01*
X216000604Y-119503795D01*
X215942600Y-119795400D01*
X215942600Y-125954440D01*
X215915689Y-125889311D01*
X215612286Y-125585378D01*
X215264958Y-125441154D01*
X215264958Y-116629026D01*
X215143817Y-116397000D01*
X213937000Y-116397000D01*
X213937000Y-117604469D01*
X214169027Y-117724968D01*
X214698490Y-117476821D01*
X215092688Y-117044947D01*
X215264958Y-116629026D01*
X215264958Y-125441154D01*
X215215668Y-125420687D01*
X214786216Y-125420313D01*
X214389311Y-125584311D01*
X214085378Y-125887714D01*
X213920687Y-126284332D01*
X213920313Y-126713784D01*
X214084311Y-127110689D01*
X214238000Y-127264646D01*
X214238000Y-135238000D01*
X212500000Y-135238000D01*
X212208395Y-135296004D01*
X211961185Y-135461185D01*
X211796004Y-135708395D01*
X211738000Y-136000000D01*
X211738000Y-137929960D01*
X211715668Y-137920687D01*
X211286216Y-137920313D01*
X210889311Y-138084311D01*
X210585378Y-138387714D01*
X210420687Y-138784332D01*
X210420313Y-139213784D01*
X210584311Y-139610689D01*
X210887714Y-139914622D01*
X211284332Y-140079313D01*
X211713784Y-140079687D01*
X212110689Y-139915689D01*
X212264646Y-139762000D01*
X213314974Y-139762000D01*
X213311673Y-139765301D01*
X213215000Y-139998690D01*
X213215000Y-140251309D01*
X213215000Y-141001309D01*
X213311673Y-141234698D01*
X213488000Y-141411025D01*
X213488000Y-141418498D01*
X213469983Y-141422082D01*
X213020657Y-141722312D01*
X213000000Y-141753227D01*
X212979343Y-141722312D01*
X212530017Y-141422082D01*
X212000000Y-141316655D01*
X211469983Y-141422082D01*
X211239866Y-141575841D01*
X211109699Y-141445673D01*
X210876310Y-141349000D01*
X210623691Y-141349000D01*
X209123691Y-141349000D01*
X208890302Y-141445673D01*
X208711673Y-141624301D01*
X208615000Y-141857690D01*
X208615000Y-142110309D01*
X208615000Y-144142309D01*
X208711673Y-144375698D01*
X208890301Y-144554327D01*
X209123690Y-144651000D01*
X209376309Y-144651000D01*
X210876309Y-144651000D01*
X211109698Y-144554327D01*
X211238000Y-144426025D01*
X211238000Y-145443163D01*
X211215000Y-145498690D01*
X211215000Y-145751309D01*
X211215000Y-146501309D01*
X211311673Y-146734698D01*
X211490301Y-146913327D01*
X211723690Y-147010000D01*
X211976309Y-147010000D01*
X212776309Y-147010000D01*
X213000000Y-146917344D01*
X213223691Y-147010000D01*
X213464250Y-147010000D01*
X213623000Y-146851250D01*
X213623000Y-146127000D01*
X213603000Y-146127000D01*
X213603000Y-145873000D01*
X213623000Y-145873000D01*
X213623000Y-145148750D01*
X213464250Y-144990000D01*
X213223691Y-144990000D01*
X213000000Y-145082655D01*
X212776310Y-144990000D01*
X212762000Y-144990000D01*
X212762000Y-144422911D01*
X212979343Y-144277688D01*
X213000000Y-144246772D01*
X213020657Y-144277688D01*
X213469983Y-144577918D01*
X214000000Y-144683345D01*
X214530017Y-144577918D01*
X214979343Y-144277688D01*
X215000000Y-144246772D01*
X215020657Y-144277688D01*
X215469983Y-144577918D01*
X216000000Y-144683345D01*
X216530017Y-144577918D01*
X216979343Y-144277688D01*
X217017601Y-144220430D01*
X217110460Y-144335145D01*
X217587316Y-144594173D01*
X217658815Y-144608318D01*
X217873000Y-144485656D01*
X217873000Y-143127000D01*
X217853000Y-143127000D01*
X217853000Y-142873000D01*
X217873000Y-142873000D01*
X217873000Y-142853000D01*
X218127000Y-142853000D01*
X218127000Y-142873000D01*
X218147000Y-142873000D01*
X218147000Y-143127000D01*
X218127000Y-143127000D01*
X218127000Y-144485656D01*
X218341185Y-144608318D01*
X218412684Y-144594173D01*
X218889540Y-144335145D01*
X218982398Y-144220430D01*
X219020657Y-144277688D01*
X219469983Y-144577918D01*
X220000000Y-144683345D01*
X220530017Y-144577918D01*
X220979343Y-144277688D01*
X221000000Y-144246772D01*
X221020657Y-144277688D01*
X221469983Y-144577918D01*
X222000000Y-144683345D01*
X222530017Y-144577918D01*
X222979343Y-144277688D01*
X223000000Y-144246772D01*
X223020657Y-144277688D01*
X223469983Y-144577918D01*
X224000000Y-144683345D01*
X224530017Y-144577918D01*
X224979343Y-144277688D01*
X225017601Y-144220430D01*
X225110460Y-144335145D01*
X225587316Y-144594173D01*
X225658815Y-144608318D01*
X225873000Y-144485656D01*
X225873000Y-143127000D01*
X225853000Y-143127000D01*
X225853000Y-142873000D01*
X225873000Y-142873000D01*
X225873000Y-141514344D01*
X225658815Y-141391682D01*
X225587316Y-141405827D01*
X225110460Y-141664855D01*
X225017601Y-141779569D01*
X224979343Y-141722312D01*
X224530017Y-141422082D01*
X224000000Y-141316655D01*
X223469983Y-141422082D01*
X223020657Y-141722312D01*
X223000000Y-141753227D01*
X222979343Y-141722312D01*
X222762000Y-141577088D01*
X222762000Y-140315630D01*
X225038815Y-138038815D01*
X225203996Y-137791605D01*
X225203996Y-137791604D01*
X225262000Y-137500000D01*
X225262000Y-131500000D01*
X225203996Y-131208395D01*
X225038815Y-130961185D01*
X225038815Y-130961184D01*
X224283630Y-130206000D01*
X225038815Y-129450816D01*
X225038815Y-129450815D01*
X225203996Y-129203605D01*
X225261999Y-128912000D01*
X225262000Y-128912000D01*
X225262000Y-122764641D01*
X225414622Y-122612286D01*
X225579313Y-122215668D01*
X225579687Y-121786216D01*
X225415689Y-121389311D01*
X225112286Y-121085378D01*
X224715668Y-120920687D01*
X224696959Y-120920670D01*
X228578815Y-117038816D01*
X228578815Y-117038815D01*
X228743996Y-116791605D01*
X228801999Y-116500000D01*
X228802000Y-116500000D01*
X228802000Y-115443311D01*
X229099670Y-115244415D01*
X229306460Y-114934930D01*
X229677964Y-115350732D01*
X230205209Y-115604709D01*
X230220974Y-115607358D01*
X230453000Y-115486217D01*
X230453000Y-114127000D01*
X230433000Y-114127000D01*
X230433000Y-113873000D01*
X230453000Y-113873000D01*
X230453000Y-113853000D01*
X230707000Y-113853000D01*
X230707000Y-113873000D01*
X231920924Y-113873000D01*
X232065184Y-113638087D01*
X231886407Y-113127000D01*
X234947395Y-113127000D01*
X236873000Y-115052605D01*
X236873000Y-115614888D01*
X236775225Y-115614803D01*
X236357914Y-115787233D01*
X236038355Y-116106235D01*
X235865197Y-116523244D01*
X235864980Y-116770948D01*
X235635197Y-116902252D01*
X235635197Y-115275225D01*
X235462767Y-114857914D01*
X235143765Y-114538355D01*
X234726756Y-114365197D01*
X234275225Y-114364803D01*
X233857914Y-114537233D01*
X233538355Y-114856235D01*
X233365197Y-115273244D01*
X233364803Y-115724775D01*
X233537233Y-116142086D01*
X233856235Y-116461645D01*
X234273244Y-116634803D01*
X234724775Y-116635197D01*
X235142086Y-116462767D01*
X235461645Y-116143765D01*
X235634803Y-115726756D01*
X235635197Y-115275225D01*
X235635197Y-116902252D01*
X232065184Y-118942259D01*
X232065184Y-114361913D01*
X231920924Y-114127000D01*
X230707000Y-114127000D01*
X230707000Y-115486217D01*
X230939026Y-115607358D01*
X230954791Y-115604709D01*
X231482036Y-115350732D01*
X231871954Y-114914320D01*
X232065184Y-114361913D01*
X232065184Y-118942259D01*
X232045167Y-118953698D01*
X231965668Y-118920687D01*
X231536216Y-118920313D01*
X231139311Y-119084311D01*
X230835378Y-119387714D01*
X230670687Y-119784332D01*
X230670313Y-120213784D01*
X230834311Y-120610689D01*
X231137714Y-120914622D01*
X231534332Y-121079313D01*
X231963784Y-121079687D01*
X232360689Y-120915689D01*
X232664622Y-120612286D01*
X232804696Y-120274950D01*
X236873000Y-117950205D01*
X236873000Y-120121151D01*
X236694625Y-120133783D01*
X236426648Y-120244783D01*
X236389501Y-120459896D01*
X236873000Y-120943395D01*
X236873000Y-121556605D01*
X236820395Y-121609210D01*
X236820395Y-121250000D01*
X236209896Y-120639501D01*
X235994783Y-120676648D01*
X235851888Y-121104972D01*
X235883783Y-121555375D01*
X235994783Y-121823352D01*
X236209896Y-121860499D01*
X236820395Y-121250000D01*
X236820395Y-121609210D01*
X236389501Y-122040104D01*
X236426648Y-122255217D01*
X236854972Y-122398112D01*
X236873000Y-122396835D01*
X236873000Y-134746407D01*
X236712389Y-134357699D01*
X236511300Y-134156258D01*
X236511300Y-128500000D01*
X236511300Y-127749300D01*
X236453297Y-127457696D01*
X236453296Y-127457695D01*
X236288116Y-127210485D01*
X235635197Y-126557566D01*
X235635197Y-122275225D01*
X235462767Y-121857914D01*
X235143765Y-121538355D01*
X234726756Y-121365197D01*
X234275225Y-121364803D01*
X233857914Y-121537233D01*
X233538355Y-121856235D01*
X233365197Y-122273244D01*
X233364803Y-122724775D01*
X233537233Y-123142086D01*
X233856235Y-123461645D01*
X234273244Y-123634803D01*
X234724775Y-123635197D01*
X235142086Y-123462767D01*
X235461645Y-123143765D01*
X235634803Y-122726756D01*
X235635197Y-122275225D01*
X235635197Y-126557566D01*
X230079499Y-121001869D01*
X230079687Y-120786216D01*
X229915689Y-120389311D01*
X229612286Y-120085378D01*
X229215668Y-119920687D01*
X228786216Y-119920313D01*
X228389311Y-120084311D01*
X228085378Y-120387714D01*
X227920687Y-120784332D01*
X227920313Y-121213784D01*
X228065892Y-121566113D01*
X227715668Y-121420687D01*
X227286216Y-121420313D01*
X226889311Y-121584311D01*
X226585378Y-121887714D01*
X226420687Y-122284332D01*
X226420313Y-122713784D01*
X226584311Y-123110689D01*
X226887714Y-123414622D01*
X227284332Y-123579313D01*
X227501872Y-123579502D01*
X233488700Y-129566330D01*
X233488700Y-134156401D01*
X233288733Y-134356019D01*
X233115518Y-134773168D01*
X233115124Y-135224850D01*
X233287611Y-135642301D01*
X233383142Y-135738000D01*
X227764641Y-135738000D01*
X227612286Y-135585378D01*
X227215668Y-135420687D01*
X226786216Y-135420313D01*
X226389311Y-135584311D01*
X226085378Y-135887714D01*
X225920687Y-136284332D01*
X225920313Y-136713784D01*
X226084311Y-137110689D01*
X226387714Y-137414622D01*
X226784332Y-137579313D01*
X227213784Y-137579687D01*
X227610689Y-137415689D01*
X227764646Y-137262000D01*
X233500000Y-137262000D01*
X234000000Y-137262000D01*
X234184370Y-137262000D01*
X236238000Y-139315630D01*
X236238000Y-141906937D01*
X236038355Y-142106235D01*
X235865197Y-142523244D01*
X235864803Y-142974775D01*
X236037233Y-143392086D01*
X236356235Y-143711645D01*
X236773244Y-143884803D01*
X236873000Y-143884890D01*
X236873000Y-146121151D01*
X236694625Y-146133783D01*
X236426648Y-146244783D01*
X236389501Y-146459896D01*
X236873000Y-146943395D01*
X236873000Y-147556605D01*
X236820395Y-147609210D01*
X236820395Y-147250000D01*
X236209896Y-146639501D01*
X235994783Y-146676648D01*
X235851888Y-147104972D01*
X235883783Y-147555375D01*
X235994783Y-147823352D01*
X236209896Y-147860499D01*
X236820395Y-147250000D01*
X236820395Y-147609210D01*
X236389501Y-148040104D01*
X236426648Y-148255217D01*
X236854972Y-148398112D01*
X236873000Y-148396835D01*
X236873000Y-148947395D01*
M02*
