M48
;DRILL file {kicad (2014-11-17 BZR 5289)-product} date Thu 22 Jan 2015 10:16:27 AM EST
;FORMAT={-:-/ absolute / inch / decimal}
FMAT,2
INCH,TZ
T1C0.024
T2C0.025
T3C0.030
T4C0.030
T5C0.040
%
G90
G05
M72
T1
X9.2225Y-5.315
X9.2815Y-5.315
T2
X7.9331Y-5.315
X8.0709Y-5.5709
X8.2579Y-5.187
X8.3268Y-5.4724
X8.4646Y-4.9803
X8.5433Y-5.2756
X8.6417Y-5.4134
X8.6417Y-5.4724
X8.7008Y-5.374
X8.7402Y-5.4331
X8.7598Y-4.7047
X8.7992Y-4.6457
X8.8386Y-4.8031
X8.937Y-5.374
X8.9567Y-4.8228
X9.0157Y-4.7638
X9.124Y-4.7244
T3
X8.0315Y-5.1378
X8.3268Y-5.315
X8.4843Y-5.3937
X9.1535Y-5.1378
T4
X7.8346Y-4.5965
X7.8346Y-4.7736
X7.8346Y-5.6201
X7.8346Y-5.7972
X7.9331Y-4.5472
X7.9331Y-4.8228
X7.9331Y-5.5709
X7.9331Y-5.8465
X9.2323Y-4.5472
X9.2323Y-4.8228
X9.2323Y-5.5709
X9.2323Y-5.8465
X9.3307Y-4.5965
X9.3307Y-4.7736
X9.3307Y-5.6201
X9.3307Y-5.7972
T5
X8.1177Y-4.4776
X8.1177Y-4.5776
X8.2177Y-4.4776
X8.2177Y-4.5776
X8.2677Y-5.6299
X8.3177Y-4.4776
X8.3177Y-4.5776
X8.3465Y-5.6299
X8.4177Y-4.4776
X8.4177Y-4.5776
X8.4252Y-5.6299
X8.472Y-5.9449
X8.5039Y-5.6299
X8.572Y-5.9449
X8.5827Y-5.6299
X8.6614Y-5.6299
X8.672Y-5.9449
X8.678Y-4.4882
X8.7402Y-5.6299
X8.772Y-5.9449
X8.778Y-4.4882
X8.8189Y-5.6299
X8.878Y-4.4882
X8.8976Y-5.6299
X8.978Y-4.4882
X9.078Y-4.4882
T0
M30
